<?xml version="1.0" encoding="UTF-8" standalone="no"?>
<svg
   xmlns:dc="http://purl.org/dc/elements/1.1/"
   xmlns:cc="http://creativecommons.org/ns#"
   xmlns:rdf="http://www.w3.org/1999/02/22-rdf-syntax-ns#"
   xmlns:svg="http://www.w3.org/2000/svg"
   xmlns="http://www.w3.org/2000/svg"
   viewBox="0 0 2364.9067 347.72"
   height="347.72"
   width="2364.9067"
   xml:space="preserve"
   id="svg2"
   version="1.1"><metadata
     id="metadata8"><rdf:RDF><cc:Work
         rdf:about=""><dc:format>image/svg+xml</dc:format><dc:type
           rdf:resource="http://purl.org/dc/dcmitype/StillImage" /></cc:Work></rdf:RDF></metadata><defs
     id="defs6" /><g
     transform="matrix(1.3333333,0,0,-1.3333333,0,347.72)"
     id="g10"><g
       transform="scale(0.1)"
       id="g12"><path
         id="path14"
         style="fill:#ffffff;fill-opacity:1;fill-rule:nonzero;stroke:none"
         d="m 1580.3,1732.9 v 0 h -415.32 v -708.48 c 0,-85.6 -67.39,-157.971 -152.97,-159.69 -44.365,-0.89 -84.705,16.77 -113.635,45.7 -28.234,28.23 -45.723,67.332 -45.723,110.43 V 1732.9 H 437.258 v 0 c 0,149.52 121.203,270.73 270.722,270.73 h 601.6 c 149.52,0 270.72,-121.21 270.72,-270.73" /><path
         id="path16"
         style="fill:#ffffff;fill-opacity:1;fill-rule:nonzero;stroke:none"
         d="m 2103.89,241.051 -61.78,61.781 -24.55,24.547 -150.98,150.973 -229.68,229.687 c -46.16,-96.008 -113.69,-179.84 -196.39,-245.359 -118.75,-94.078 -268.79,-150.36 -431.7,-150.36 -384.037,0 -696.482,312.45 -696.482,696.49 v 590.23 c 0,384.03 312.445,696.49 696.482,696.49 384.04,0 696.42,-312.46 696.42,-696.49 v -517.65 -72.58 c 0,-62.65 -8.3,-123.431 -23.98,-181.208 l 242.8,-242.801 93.51,-93.512 v 399.402 42.278 75.841 57.3 532.93 c 0,556.25 -452.5,1008.81 -1008.75,1008.81 C 452.559,2607.85 0,2155.29 0,1599.04 V 1008.81 C 0,452.559 452.559,0 1008.81,0 c 249.05,0 477.3,90.6992 653.45,240.922 0.04,0.047 0.09,0.09 0.14,0.129 h 441.49" /><path
         id="path18"
         style="fill:#ffffff;fill-opacity:1;fill-rule:nonzero;stroke:none"
         d="m 437.258,1599.04 v -590.23 c 0,-315.138 256.418,-571.56 571.552,-571.56 129.24,0 248.68,43.172 344.5,115.809 80.14,60.722 143.85,142.113 183.15,236.183 28.23,67.59 43.84,141.797 43.84,219.568 v 590.23 c 0,10 -0.25,19.92 -0.74,29.8 h -313.27 c 1.13,-9.81 1.69,-19.74 1.69,-29.8 v -590.23 c 0,-142.919 -116.25,-259.228 -259.17,-259.228 -142.915,0 -259.232,116.309 -259.232,259.228 v 590.23 c 0,10.06 0.567,19.99 1.692,29.8 H 438.008 c -0.504,-9.88 -0.75,-19.8 -0.75,-29.8" /><path
         id="path20"
         style="fill:#ffffff;fill-opacity:1;fill-rule:nonzero;stroke:none"
         d="M 3704.47,1797.9 V 588.68 h -170.38 c -33.12,0 -55.82,9.468 -68.03,28.39 -12.24,18.93 -18.35,44.559 -18.35,76.91 v 21.309 c -49.68,-45.758 -106.08,-81.84 -169.19,-108.269 -63.1,-26.399 -130.55,-39.622 -202.31,-39.622 -138.85,0 -244.54,45.141 -317.1,135.454 -72.58,90.32 -108.86,217.519 -108.86,381.578 v 713.47 h 256.77 v -685.06 c 0,-102.56 19.31,-177.301 57.97,-224.211 38.64,-46.938 95.83,-70.418 171.56,-70.418 50.47,0 103.11,13.019 157.95,39.051 54.82,26.027 105.9,61.117 153.21,105.297 V 1797.9 h 256.76" /><path
         id="path22"
         style="fill:#ffffff;fill-opacity:1;fill-rule:nonzero;stroke:none"
         d="m 4996.49,1683.7 c 72.57,-90.31 108.85,-217.51 108.85,-381.57 V 588.68 h -257.92 v 685.06 c 0,101.76 -19.34,176.28 -57.99,223.62 -38.65,47.32 -95.44,70.99 -170.37,70.99 -51.28,0 -104.12,-13 -158.55,-39.03 -54.42,-26.03 -105.3,-61.15 -152.62,-105.33 V 588.68 H 4049.96 V 1797.9 h 171.55 c 33.14,0 55.8,-9.68 68.04,-29.01 12.22,-19.33 18.34,-45.17 18.34,-77.5 v -20.1 c 49.7,45.73 106.07,81.82 169.19,108.25 63.1,26.43 130.54,39.64 202.32,39.64 138.83,0 244.51,-45.17 317.09,-135.48" /><path
         id="path24"
         style="fill:#ffffff;fill-opacity:1;fill-rule:nonzero;stroke:none"
         d="M 5706.39,588.68 H 5448.46 V 1797.9 h 257.93 z m -278.64,1641.05 c 15.38,26.81 36.47,48.12 63.29,63.91 26.81,15.77 56,23.67 87.57,23.67 30.76,0 59.33,-7.9 85.77,-23.67 26.42,-15.79 47.32,-37.1 62.71,-63.91 15.38,-26.8 23.07,-55.59 23.07,-86.37 0,-30.75 -7.69,-59.56 -23.07,-86.37 -15.39,-26.81 -36.29,-48.12 -62.71,-63.88 -26.44,-15.79 -55.01,-23.67 -85.77,-23.67 -31.57,0 -60.76,7.88 -87.57,23.67 -26.82,15.76 -47.91,37.07 -63.29,63.88 -15.39,26.81 -23.07,55.62 -23.07,86.37 0,30.78 7.68,59.57 23.07,86.37" /><path
         id="path26"
         style="fill:#ffffff;fill-opacity:1;fill-rule:nonzero;stroke:none"
         d="m 7921.28,264.512 h -209.41 c -71.8,0 -127.8,27.199 -168.02,81.617 l -395.18,551.371 -15.38,20.109 c 59.16,31.52 112.99,73.153 161.51,124.811 48.51,51.66 87.13,111.22 115.94,178.67 28.79,67.45 43.19,138.62 43.19,213.57 0,113.58 -26.83,216.52 -80.45,308.79 -53.66,92.3 -126.6,164.87 -218.9,217.7 -92.28,52.84 -194.44,79.3 -306.44,79.3 -112.02,0 -214.35,-26.46 -307.02,-79.3 -92.7,-52.83 -165.66,-125.4 -218.9,-217.7 -53.24,-92.27 -79.86,-195.21 -79.86,-308.79 0,-112.8 26.42,-215.34 79.28,-307.64 52.83,-92.29 124.62,-164.86 215.34,-217.7 90.69,-52.859 190.88,-79.269 300.52,-79.269 68.62,0 133.3,14.59 194.04,43.781 L 7186.54,636 c -48.13,-22.09 -102.16,-39.031 -162.11,-50.859 -59.95,-11.84 -119.1,-17.743 -177.47,-17.743 -162.51,0 -310.2,38.043 -443.09,114.172 -132.93,76.11 -237.63,180.231 -314.14,312.36 -76.51,132.1 -114.76,279.01 -114.76,440.73 0,161.68 38.25,308.79 114.76,441.33 76.51,132.51 181.21,236.81 314.14,312.94 132.89,76.11 280.58,114.18 443.09,114.18 162.49,0 310.58,-38.07 444.29,-114.18 133.7,-76.13 238.79,-180.43 315.31,-312.94 76.5,-132.54 114.77,-279.65 114.77,-441.33 0,-95.46 -14.4,-185.77 -43.19,-270.96 -28.8,-85.17 -70.01,-162.51 -123.63,-231.891 -16.57,-25.25 -37.48,-47.52 -62.72,-66.848 -25.25,-19.332 -53.24,-34.531 -84,-45.551 37.06,-2.379 70.78,-10.262 101.16,-23.672 30.36,-13.429 53.03,-30.769 68.03,-52.058 l 344.3,-479.168" /><path
         id="path28"
         style="fill:#ffffff;fill-opacity:1;fill-rule:nonzero;stroke:none"
         d="m 7903.54,1371.93 h 761.96 v -268.58 h -761.96 v 268.58" /><path
         id="path30"
         style="fill:#ffffff;fill-opacity:1;fill-rule:nonzero;stroke:none"
         d="m 9745.7,696.34 c -58.38,-35.488 -120.49,-65.86 -186.34,-91.09 -65.87,-25.219 -135.89,-37.852 -210.01,-37.852 -74.16,0 -139.44,15.571 -195.83,46.723 -56.4,31.149 -100.18,76.109 -131.33,134.899 -31.16,58.73 -46.74,128.351 -46.74,208.832 v 599.858 h -211.78 v 157.35 c 0,26.81 8.67,47.32 26.03,61.53 17.34,14.2 36.68,21.31 57.98,21.31 h 127.77 l 4.74,315.89 c 1.58,29.97 10.45,55.01 26.62,75.14 16.16,20.11 40.03,30.16 71.58,30.16 h 157.36 V 1797.9 h 340.76 v -240.19 h -340.76 v -540.73 c 0,-63.878 15.78,-112.992 47.33,-147.3 31.54,-34.321 74.14,-51.469 127.79,-51.469 22.07,0 43.36,3.559 63.88,10.668 20.51,7.101 42.6,16.941 66.27,29.562 21.29,10.239 43.77,15.391 67.43,15.391 21.3,0 40.02,-4.742 56.2,-14.211 16.17,-9.461 27.82,-23.262 34.91,-41.41 L 9745.7,696.34" /><path
         id="path32"
         style="fill:#ffffff;fill-opacity:1;fill-rule:nonzero;stroke:none"
         d="m 10792.8,1313.98 c -19.7,78.09 -60.2,139.61 -121.3,184.56 -61.1,44.96 -133.1,67.45 -215.9,67.45 -61.5,0 -117.7,-12.44 -168.6,-37.26 -50.9,-24.85 -93.3,-59.57 -127.2,-104.15 -33.9,-44.55 -56.4,-96.02 -67.4,-154.38 h 3.5 c 22.1,29.17 57.2,43.78 105.3,43.78 z m -30.8,430.06 c 90,-49.29 160.5,-118.7 211.8,-208.24 51.3,-89.53 77.3,-192.25 78.1,-308.2 0,-37.88 -11.2,-69.43 -33.7,-94.65 -22.5,-25.25 -51.1,-37.88 -85.8,-37.88 h -835.3 c 13.4,-55.2 37.5,-103.718 72.2,-145.511 34.7,-41.821 77.7,-74.149 128.9,-97.039 51.3,-22.872 107.3,-34.309 168.1,-34.309 59.1,0 119.4,17.34 181,52.078 24.4,13.383 50.1,20.109 76.9,20.109 23.6,0 45.9,-5.148 66.8,-15.386 20.9,-10.274 37.7,-25.25 50.3,-44.961 l 59.2,-87.551 c -56,-55.219 -121.9,-98.219 -197.6,-128.969 -75.7,-30.769 -154.6,-46.133 -236.6,-46.133 -120.7,0 -228.8,26.813 -324.2,80.454 -95.5,53.609 -170.24,127.789 -224.25,222.437 -54.04,94.633 -81.06,201.911 -81.06,321.821 0,119.08 26.64,226.17 79.88,321.23 53.23,95.03 126.83,169.58 220.63,223.62 93.9,54.02 200,81.04 318.3,81.04 114.4,0 216.5,-24.66 306.4,-73.96" /><path
         id="path34"
         style="fill:#ffffff;fill-opacity:1;fill-rule:nonzero;stroke:none"
         d="m 11475.5,647.852 c -95.5,53.609 -170.2,127.789 -224.2,222.437 -54.1,94.633 -81.1,201.911 -81.1,321.821 0,119.88 26.8,227.35 80.5,322.41 53.6,95.03 128.3,169.37 224.2,223.03 95.8,53.62 204.1,80.45 324.8,80.45 76.5,0 155.9,-16.19 238.4,-48.52 82.4,-32.35 148.1,-75.7 197,-130.14 l -58,-88.74 c -12.6,-19.73 -28.8,-35.11 -48.5,-46.13 -19.7,-11.07 -41,-16.57 -63.9,-16.57 -26.8,0 -51.3,6.68 -73.4,20.11 -33.1,17.34 -66.6,30.77 -100.5,40.23 -34,9.47 -65.1,14.19 -93.5,14.19 -71,0 -134.5,-15.95 -190.5,-47.91 -56,-31.95 -100,-76.13 -131.9,-132.51 -32,-56.4 -47.9,-119.72 -47.9,-189.9 0,-70.23 15.9,-133.53 47.9,-189.9 31.9,-56.401 76.3,-100.581 133.1,-132.53 56.8,-31.93 120.7,-47.91 191.7,-47.91 27.6,0 58.3,4.91 92.2,14.8 34,9.84 67.5,23.828 100.6,41.981 25.2,14.211 50.1,21.308 74.6,21.308 22,0 42.9,-5.328 62.7,-15.98 19.7,-10.641 35.8,-25.438 48.5,-44.359 l 59.1,-88.731 c -52,-57.59 -117.9,-102.57 -197.6,-134.898 -79.6,-32.332 -159.7,-48.493 -240.1,-48.493 -120.7,0 -228.8,26.813 -324.2,80.454" /><path
         id="path36"
         style="fill:#ffffff;fill-opacity:1;fill-rule:nonzero;stroke:none"
         d="m 13413.5,1683.7 c 72.5,-90.31 108.8,-217.51 108.8,-381.57 V 588.68 h -257.9 v 685.06 c 0,101.76 -19.3,176.28 -58,223.62 -38.6,47.32 -95.4,70.99 -170.4,70.99 -51.2,0 -104.1,-13 -158.5,-39.03 -54.4,-26.03 -105.3,-61.15 -152.6,-105.33 V 588.68 h -258 v 1754.66 h 258 v -672.05 c 49.7,45.73 106,81.82 169.2,108.25 63.1,26.43 130.5,39.64 202.3,39.64 138.8,0 244.5,-45.17 317.1,-135.48" /><path
         id="path38"
         style="fill:#ffffff;fill-opacity:1;fill-rule:nonzero;stroke:none"
         d="m 14812,1683.7 c 72.5,-90.31 108.8,-217.51 108.8,-381.57 V 588.68 h -257.9 v 685.06 c 0,101.76 -19.4,176.28 -58,223.62 -38.6,47.32 -95.4,70.99 -170.4,70.99 -51.2,0 -104.1,-13 -158.5,-39.03 -54.4,-26.03 -105.3,-61.15 -152.6,-105.33 V 588.68 h -258 V 1797.9 h 171.6 c 33.1,0 55.8,-9.68 68,-29.01 12.3,-19.33 18.4,-45.17 18.4,-77.5 v -20.1 c 49.7,45.73 106,81.82 169.2,108.25 63,26.43 130.5,39.64 202.3,39.64 138.8,0 244.5,-45.17 317.1,-135.48" /><path
         id="path40"
         style="fill:#ffffff;fill-opacity:1;fill-rule:nonzero;stroke:none"
         d="m 15521.9,588.68 h -258 V 1797.9 h 258 z m -278.7,1641.05 c 15.4,26.81 36.5,48.12 63.3,63.91 26.8,15.77 56,23.67 87.6,23.67 30.7,0 59.3,-7.9 85.7,-23.67 26.5,-15.79 47.4,-37.1 62.7,-63.91 15.4,-26.8 23.1,-55.59 23.1,-86.37 0,-30.75 -7.7,-59.56 -23.1,-86.37 -15.3,-26.81 -36.2,-48.12 -62.7,-63.88 -26.4,-15.79 -55,-23.67 -85.7,-23.67 -31.6,0 -60.8,7.88 -87.6,23.67 -26.8,15.76 -47.9,37.07 -63.3,63.88 -15.4,26.81 -23.1,55.62 -23.1,86.37 0,30.78 7.7,59.57 23.1,86.37" /><g
         transform="scale(1.08815)"
         id="g42"><path
           id="path44"
           style="fill:#ffffff;fill-opacity:1;fill-rule:nonzero;stroke:none"
           d="m 16300,243.084 h -192.5 c -65.9,0 -117.4,24.996 -154.4,75.006 l -363.1,506.706 -14.2,18.481 c 54.3,28.966 103.9,67.226 148.5,114.702 44.5,47.471 80,102.211 106.5,164.191 26.4,61.99 39.7,127.4 39.7,196.27 0,104.38 -24.7,198.99 -73.9,283.78 -49.4,84.82 -116.5,151.51 -201.2,200.07 -84.8,48.55 -178.7,72.87 -281.7,72.87 -102.9,0 -196.9,-24.32 -282.1,-72.87 -85.2,-48.56 -152.2,-115.25 -201.2,-200.07 -48.9,-84.79 -73.4,-179.4 -73.4,-283.78 0,-103.66 24.4,-197.89 72.9,-282.72 48.5,-84.81 114.5,-151.501 197.8,-200.061 83.5,-48.577 175.5,-72.848 276.3,-72.848 63,0 122.5,13.408 178.3,40.235 l 142.4,-218.566 c -44.2,-20.301 -93.9,-35.87 -148.9,-46.74 -55.1,-10.88 -109.5,-16.305 -163.2,-16.305 -149.3,0 -284.9,34.962 -407.2,104.924 -122.1,69.944 -218.3,165.63 -288.6,287.056 -70.3,121.405 -105.5,256.405 -105.5,405.025 0,148.59 35.2,283.78 105.5,405.58 70.3,121.77 166.5,217.63 288.6,287.6 122.3,69.94 257.9,104.92 407.2,104.92 149.4,0 285.5,-34.98 408.3,-104.92 122.9,-69.97 219.5,-165.83 289.8,-287.6 70.3,-121.8 105.5,-256.99 105.5,-405.58 0,-87.72 -13.2,-170.72 -39.7,-249.01 -26.5,-78.267 -64.3,-149.342 -113.6,-213.104 -15.2,-23.205 -34.4,-43.67 -57.6,-61.433 -23.3,-17.766 -49,-31.734 -77.2,-41.861 34,-2.186 65,-9.43 92.9,-21.754 27.9,-12.342 48.8,-28.277 62.6,-47.841 L 16300,243.084" /></g></g></g></svg>