<?xml version="1.0" encoding="UTF-8" standalone="no"?>
<svg
   xmlns:dc="http://purl.org/dc/elements/1.1/"
   xmlns:cc="http://creativecommons.org/ns#"
   xmlns:rdf="http://www.w3.org/1999/02/22-rdf-syntax-ns#"
   xmlns:svg="http://www.w3.org/2000/svg"
   xmlns="http://www.w3.org/2000/svg"
   viewBox="0 0 2011.5333 1905.8933"
   height="1905.8933"
   width="2011.5333"
   xml:space="preserve"
   id="svg2"
   version="1.1"><metadata
     id="metadata8"><rdf:RDF><cc:Work
         rdf:about=""><dc:format>image/svg+xml</dc:format><dc:type
           rdf:resource="http://purl.org/dc/dcmitype/StillImage" /></cc:Work></rdf:RDF></metadata><defs
     id="defs6" /><g
     transform="matrix(1.3333333,0,0,-1.3333333,0,1905.8933)"
     id="g10"><g
       transform="scale(0.1)"
       id="g12"><path
         id="path14"
         style="fill:#100f0d;fill-opacity:1;fill-rule:nonzero;stroke:none"
         d="m 9785.41,10581.3 v 0 H 8022.91 V 7574.75 c 0,-363.26 -285.94,-670.37 -649.12,-677.64 -188.26,-3.78 -359.46,71.12 -482.23,193.9 -119.81,119.81 -194.03,285.75 -194.03,468.65 V 10581.3 H 4934.77 v 0 c 0,634.5 514.35,1148.8 1148.84,1148.8 h 2552.95 c 634.49,0 1148.85,-514.3 1148.85,-1148.8" /><path
         id="path16"
         style="fill:#100f0d;fill-opacity:1;fill-rule:nonzero;stroke:none"
         d="m 12007.3,4250.4 -262.2,262.21 -104.2,104.17 -640.6,640.69 -974.7,974.69 C 9829.67,5824.74 9543.13,5469 9192.16,5190.94 8688.25,4791.73 8051.54,4552.9 7360.22,4552.9 c -1629.69,0 -2955.61,1325.91 -2955.61,2955.6 v 2504.7 c 0,1629.7 1325.92,2955.6 2955.61,2955.6 1629.69,0 2955.38,-1325.9 2955.38,-2955.6 V 7816.52 7508.5 c 0,-265.87 -35.3,-523.79 -101.8,-768.99 l 1030.3,-1030.35 396.8,-396.82 v 1694.9 179.46 321.8 243.17 2261.53 c 0,2360.5 -1920.17,4281 -4280.68,4281 -2360.51,0 -4280.99,-1920.5 -4280.99,-4281 V 7508.5 c 0,-2360.51 1920.48,-4281 4280.99,-4281 1056.86,0 2025.45,384.9 2772.98,1022.4 0.2,0.2 0.4,0.4 0.6,0.5 h 1873.5" /><path
         id="path18"
         style="fill:#100f0d;fill-opacity:1;fill-rule:nonzero;stroke:none"
         d="M 4934.77,10013.2 V 7508.5 c 0,-1337.31 1088.14,-2425.45 2425.45,-2425.45 548.44,0 1055.27,183.17 1461.9,491.45 340.09,257.66 610.47,603.05 777.2,1002.26 119.82,286.81 186.09,601.72 186.09,931.74 v 2504.7 c 0,42.4 -1.07,84.6 -3.19,126.5 H 8452.86 c 4.78,-41.7 7.16,-83.8 7.16,-126.5 V 7508.5 c 0,-606.49 -493.31,-1100.07 -1099.8,-1100.07 -606.5,0 -1100.07,493.58 -1100.07,1100.07 v 2504.7 c 0,42.7 2.39,84.8 7.16,126.5 H 4937.95 c -2.12,-41.9 -3.18,-84.1 -3.18,-126.5" /><path
         id="path20"
         style="fill:#100f0d;fill-opacity:1;fill-rule:nonzero;stroke:none"
         d="M 1054.22,1533.4 V 324.199 H 883.832 c -33.121,0 -55.812,9.403 -68.027,28.403 -12.235,18.898 -18.348,44.5 -18.348,76.898 v 21.301 C 747.77,405 691.367,368.898 628.266,342.5 565.16,316.102 497.715,302.902 425.953,302.902 287.105,302.902 181.414,348 108.852,438.301 36.2695,528.699 0,655.902 0,819.898 V 1533.4 H 256.758 V 848.301 c 0,-102.5 19.312,-177.301 57.972,-224.199 38.641,-46.903 95.833,-70.403 171.563,-70.403 50.465,0 103.113,13 157.949,39.102 54.821,26 105.899,61.097 153.215,105.301 V 1533.4 h 256.763" /><path
         id="path22"
         style="fill:#100f0d;fill-opacity:1;fill-rule:nonzero;stroke:none"
         d="m 2346.24,1419.2 c 72.56,-90.3 108.85,-217.5 108.85,-381.6 V 324.199 H 2197.16 V 1009.2 c 0,101.8 -19.34,176.3 -57.98,223.7 -38.66,47.3 -95.45,70.9 -170.37,70.9 -51.29,0 -104.12,-13 -158.55,-39 -54.42,-26 -105.3,-61.1 -152.63,-105.3 V 324.199 H 1399.7 V 1533.4 h 171.56 c 33.13,0 55.8,-9.7 68.03,-29 12.23,-19.3 18.34,-45.2 18.34,-77.5 v -20.1 c 49.7,45.7 106.08,81.8 169.19,108.2 63.11,26.5 130.54,39.7 202.33,39.7 138.82,0 244.51,-45.2 317.09,-135.5" /><path
         id="path24"
         style="fill:#100f0d;fill-opacity:1;fill-rule:nonzero;stroke:none"
         d="M 3056.13,324.199 H 2798.2 V 1533.4 h 257.93 z M 2777.5,1965.2 c 15.37,26.8 36.47,48.1 63.29,63.9 26.81,15.8 56,23.7 87.56,23.7 30.76,0 59.34,-7.9 85.77,-23.7 26.42,-15.8 47.33,-37.1 62.72,-63.9 15.37,-26.8 23.06,-55.6 23.06,-86.3 0,-30.8 -7.69,-59.6 -23.06,-86.4 -15.39,-26.8 -36.3,-48.1 -62.72,-63.9 -26.43,-15.8 -55.01,-23.7 -85.77,-23.7 -31.56,0 -60.75,7.9 -87.56,23.7 -26.82,15.8 -47.92,37.1 -63.29,63.9 -15.39,26.8 -23.07,55.6 -23.07,86.4 0,30.7 7.68,59.5 23.07,86.3" /><path
         id="path26"
         style="fill:#100f0d;fill-opacity:1;fill-rule:nonzero;stroke:none"
         d="m 5271.02,0 h -209.41 c -71.79,0 -127.79,27.1992 -168.02,81.6016 L 4498.42,633 l -15.39,20.102 c 59.16,31.5 112.99,73.199 161.51,124.8 48.51,51.7 87.14,111.2 115.94,178.7 28.79,67.398 43.19,138.598 43.19,213.598 0,113.5 -26.82,216.5 -80.45,308.7 -53.65,92.3 -126.6,164.9 -218.89,217.7 -92.29,52.9 -194.45,79.3 -306.45,79.3 -112.01,0 -214.35,-26.4 -307.02,-79.3 -92.7,-52.8 -165.65,-125.4 -218.89,-217.7 -53.24,-92.2 -79.86,-195.2 -79.86,-308.7 0,-112.9 26.42,-215.399 79.27,-307.7 C 3724.21,770.199 3796,697.699 3886.72,644.801 3977.41,592 4077.6,565.5 4187.24,565.5 c 68.63,0 133.3,14.602 194.04,43.801 l 155,-237.801 c -48.13,-22.098 -102.16,-39 -162.1,-50.898 -59.95,-11.801 -119.1,-17.7 -177.48,-17.7 -162.5,0 -310.2,38 -443.09,114.2 -132.92,76.097 -237.63,180.199 -314.14,312.3 -76.51,132.098 -114.76,278.998 -114.76,440.798 0,161.6 38.25,308.7 114.76,441.3 76.51,132.5 181.22,236.8 314.14,312.9 132.89,76.1 280.59,114.2 443.09,114.2 162.49,0 310.59,-38.1 444.29,-114.2 133.7,-76.1 238.8,-180.4 315.32,-312.9 76.49,-132.6 114.76,-279.7 114.76,-441.3 0,-95.5 -14.4,-185.798 -43.19,-271.001 -28.8,-85.199 -70,-162.5 -123.63,-231.898 -16.57,-25.199 -37.48,-47.5 -62.72,-66.899 -25.25,-19.3 -53.23,-34.5 -84,-45.504 37.06,-2.398 70.79,-10.296 101.16,-23.699 30.36,-13.398 53.04,-30.699 68.04,-52 L 5271.02,0" /><path
         id="path28"
         style="fill:#100f0d;fill-opacity:1;fill-rule:nonzero;stroke:none"
         d="m 5253.28,1107.4 h 761.96 V 838.801 H 5253.28 V 1107.4" /><path
         id="path30"
         style="fill:#100f0d;fill-opacity:1;fill-rule:nonzero;stroke:none"
         d="m 7095.45,431.801 c -58.39,-35.5 -120.5,-65.801 -186.35,-91.102 -65.87,-25.199 -135.89,-37.797 -210.01,-37.797 -74.16,0 -139.44,15.598 -195.83,46.7 -56.4,31.199 -100.17,76.097 -131.32,134.898 -31.17,58.699 -46.74,128.402 -46.74,208.801 V 1293.2 h -211.79 v 157.4 c 0,26.8 8.67,47.3 26.03,61.5 17.34,14.2 36.69,21.3 57.98,21.3 h 127.78 l 4.73,315.9 c 1.58,30 10.46,55 26.62,75.1 16.16,20.1 40.04,30.2 71.59,30.2 h 157.36 v -421.2 h 340.75 V 1293.2 H 6585.5 V 752.5 c 0,-63.898 15.77,-113 47.32,-147.301 31.54,-34.297 74.14,-51.5 127.79,-51.5 22.08,0 43.36,3.602 63.88,10.703 20.51,7.098 42.6,16.899 66.27,29.496 21.3,10.301 43.78,15.403 67.44,15.403 21.29,0 40.02,-4.699 56.2,-14.199 16.16,-9.403 27.81,-23.301 34.9,-41.403 l 46.15,-121.898" /><path
         id="path32"
         style="fill:#100f0d;fill-opacity:1;fill-rule:nonzero;stroke:none"
         d="m 8142.55,1049.5 c -19.72,78.1 -60.16,139.6 -121.28,184.5 -61.13,45 -133.11,67.5 -215.93,67.5 -61.52,0 -117.73,-12.5 -168.6,-37.3 -50.87,-24.8 -93.28,-59.5 -127.19,-104.1 -33.92,-44.6 -56.4,-96.1 -67.45,-154.4 h 3.55 c 22.08,29.2 57.18,43.8 105.32,43.8 z m -30.77,430 c 89.93,-49.3 160.51,-118.7 211.79,-208.2 51.27,-89.5 77.3,-192.3 78.09,-308.198 0,-37.903 -11.24,-69.403 -33.72,-94.7 -22.48,-25.203 -51.08,-37.8 -85.78,-37.8 h -835.31 c 13.4,-55.2 37.45,-103.801 72.16,-145.5 34.7,-41.903 77.69,-74.2 128.97,-97.102 51.27,-22.898 107.27,-34.301 168.01,-34.301 59.15,0 119.5,17.301 181.03,52.102 24.44,13.398 50.08,20.101 76.9,20.101 23.67,0 45.95,-5.203 66.86,-15.402 20.88,-10.301 37.65,-25.301 50.27,-45 l 59.16,-87.5 c -56.01,-55.199 -121.86,-98.199 -197.59,-129 -75.72,-30.699 -154.6,-46.098 -236.63,-46.098 -120.68,0 -228.75,26.797 -324.19,80.399 -95.44,53.699 -170.2,127.801 -224.21,222.5 -54.03,94.601 -81.05,201.898 -81.05,321.801 0,119.098 26.63,226.198 79.87,321.198 53.24,95.1 126.78,169.6 220.66,223.7 93.85,54 199.96,81 318.27,81 114.37,0 216.52,-24.7 306.44,-74" /><path
         id="path34"
         style="fill:#100f0d;fill-opacity:1;fill-rule:nonzero;stroke:none"
         d="M 8825.21,383.301 C 8729.77,437 8655.02,511.102 8601,605.801 c -54.03,94.601 -81.05,201.898 -81.05,321.801 0,119.898 26.81,227.398 80.46,322.398 53.63,95 128.38,169.4 224.21,223 95.84,53.7 204.1,80.5 324.79,80.5 76.49,0 155.97,-16.2 238.4,-48.5 82.42,-32.4 148.09,-75.7 197,-130.2 l -57.97,-88.7 c -12.63,-19.7 -28.81,-35.1 -48.51,-46.1 -19.73,-11.1 -41.03,-16.6 -63.9,-16.6 -26.82,0 -51.28,6.7 -73.35,20.1 -33.14,17.3 -66.67,30.8 -100.57,40.2 -33.93,9.5 -65.07,14.2 -93.48,14.2 -70.98,0 -134.49,-15.9 -190.49,-47.9 -56.01,-31.9 -99.98,-76.1 -131.92,-132.5 -31.95,-56.4 -47.91,-119.699 -47.91,-189.898 0,-70.204 15.96,-133.5 47.91,-189.903 31.94,-56.398 76.31,-100.597 133.11,-132.5 56.8,-32 120.68,-47.898 191.68,-47.898 27.59,0 58.36,4.898 92.28,14.801 33.91,9.8 67.45,23.8 100.57,41.898 25.24,14.199 50.09,21.402 74.55,21.402 22.06,0 42.97,-5.402 62.7,-16 19.7,-10.703 35.88,-25.504 48.51,-44.402 l 59.16,-88.699 c -52.06,-57.602 -117.92,-102.602 -197.6,-134.903 -79.67,-32.296 -159.73,-48.496 -240.17,-48.496 -120.69,0 -228.76,26.797 -324.2,80.399" /><path
         id="path36"
         style="fill:#100f0d;fill-opacity:1;fill-rule:nonzero;stroke:none"
         d="m 10763.2,1419.2 c 72.6,-90.3 108.9,-217.5 108.9,-381.6 V 324.199 h -258 V 1009.2 c 0,101.8 -19.3,176.3 -57.9,223.7 -38.7,47.3 -95.5,70.9 -170.4,70.9 -51.3,0 -104.1,-13 -158.6,-39 -54.4,-26 -105.3,-61.1 -152.6,-105.3 V 324.199 H 9816.69 V 2078.8 h 257.91 v -672 c 49.7,45.7 106.1,81.8 169.2,108.2 63.1,26.5 130.5,39.7 202.3,39.7 138.9,0 244.5,-45.2 317.1,-135.5" /><path
         id="path38"
         style="fill:#100f0d;fill-opacity:1;fill-rule:nonzero;stroke:none"
         d="m 12161.7,1419.2 c 72.6,-90.3 108.9,-217.5 108.9,-381.6 V 324.199 h -258 V 1009.2 c 0,101.8 -19.3,176.3 -57.9,223.7 -38.7,47.3 -95.5,70.9 -170.4,70.9 -51.3,0 -104.1,-13 -158.5,-39 -54.5,-26 -105.3,-61.1 -152.7,-105.3 V 324.199 h -257.9 V 1533.4 h 171.5 c 33.2,0 55.8,-9.7 68.1,-29 12.2,-19.3 18.3,-45.2 18.3,-77.5 v -20.1 c 49.7,45.7 106.1,81.8 169.2,108.2 63.1,26.5 130.5,39.7 202.3,39.7 138.8,0 244.5,-45.2 317.1,-135.5" /><path
         id="path40"
         style="fill:#100f0d;fill-opacity:1;fill-rule:nonzero;stroke:none"
         d="m 12871.6,324.199 h -257.9 V 1533.4 h 257.9 z M 12593,1965.2 c 15.4,26.8 36.4,48.1 63.3,63.9 26.8,15.8 56,23.7 87.5,23.7 30.8,0 59.4,-7.9 85.8,-23.7 26.4,-15.8 47.3,-37.1 62.7,-63.9 15.4,-26.8 23.1,-55.6 23.1,-86.3 0,-30.8 -7.7,-59.6 -23.1,-86.4 -15.4,-26.8 -36.3,-48.1 -62.7,-63.9 -26.4,-15.8 -55,-23.7 -85.8,-23.7 -31.5,0 -60.7,7.9 -87.5,23.7 -26.9,15.8 -47.9,37.1 -63.3,63.9 -15.4,26.8 -23.1,55.6 -23.1,86.4 0,30.7 7.7,59.5 23.1,86.3" /><path
         id="path42"
         style="fill:#100f0d;fill-opacity:1;fill-rule:nonzero;stroke:none"
         d="m 15086.5,0 h -209.4 c -71.8,0 -127.8,27.1992 -168,81.6016 L 14313.9,633 l -15.4,20.102 c 59.2,31.5 113,73.199 161.5,124.8 48.5,51.7 87.2,111.2 116,178.7 28.8,67.398 43.2,138.598 43.2,213.598 0,113.5 -26.9,216.5 -80.5,308.7 -53.6,92.3 -126.6,164.9 -218.9,217.7 -92.3,52.9 -194.4,79.3 -306.4,79.3 -112,0 -214.4,-26.4 -307.1,-79.3 -92.7,-52.8 -165.6,-125.4 -218.8,-217.7 -53.3,-92.2 -79.9,-195.2 -79.9,-308.7 0,-112.9 26.4,-215.399 79.2,-307.7 52.9,-92.301 124.7,-164.801 215.4,-217.699 90.7,-52.801 190.9,-79.301 300.5,-79.301 68.6,0 133.3,14.602 194.1,43.801 l 155,-237.801 c -48.2,-22.098 -102.2,-39 -162.1,-50.898 -60,-11.801 -119.2,-17.7 -177.5,-17.7 -162.5,0 -310.2,38 -443.1,114.2 -132.9,76.097 -237.7,180.199 -314.1,312.3 -76.6,132.098 -114.8,278.998 -114.8,440.798 0,161.6 38.2,308.7 114.8,441.3 76.4,132.5 181.2,236.8 314.1,312.9 132.9,76.1 280.6,114.2 443.1,114.2 162.5,0 310.6,-38.1 444.3,-114.2 133.7,-76.1 238.8,-180.4 315.3,-312.9 76.5,-132.6 114.8,-279.7 114.8,-441.3 0,-95.5 -14.4,-185.798 -43.2,-271.001 -28.8,-85.199 -70.1,-162.5 -123.7,-231.898 -16.5,-25.199 -37.4,-47.5 -62.7,-66.899 -25.2,-19.3 -53.2,-34.5 -84,-45.504 37.1,-2.398 70.8,-10.296 101.2,-23.699 30.3,-13.398 53,-30.699 68,-52 L 15086.5,0" /></g></g></svg>