<?xml version="1.0" encoding="UTF-8" standalone="no"?>
<svg
   xmlns:dc="http://purl.org/dc/elements/1.1/"
   xmlns:cc="http://creativecommons.org/ns#"
   xmlns:rdf="http://www.w3.org/1999/02/22-rdf-syntax-ns#"
   xmlns:svg="http://www.w3.org/2000/svg"
   xmlns="http://www.w3.org/2000/svg"
   viewBox="0 0 1190.4 1475.5601"
   height="1475.5601"
   width="1190.4"
   xml:space="preserve"
   id="svg2"
   version="1.1"><metadata
     id="metadata8"><rdf:RDF><cc:Work
         rdf:about=""><dc:format>image/svg+xml</dc:format><dc:type
           rdf:resource="http://purl.org/dc/dcmitype/StillImage" /></cc:Work></rdf:RDF></metadata><defs
     id="defs6" /><g
     transform="matrix(1.3333333,0,0,-1.3333333,0,1475.56)"
     id="g10"><g
       transform="scale(0.1)"
       id="g12"><path
         id="path14"
         style="fill:#ffffff;fill-opacity:1;fill-rule:nonzero;stroke:none"
         d="m 6706.18,7353.77 v 0 H 4943.68 V 4347.25 c 0,-363.26 -285.94,-670.37 -649.12,-677.64 -188.25,-3.77 -359.45,71.13 -482.23,193.9 -119.81,119.81 -194.03,285.75 -194.03,468.65 V 7353.77 H 1855.54 v 0 c 0,634.49 514.35,1148.84 1148.84,1148.84 h 2552.95 c 634.49,0 1148.85,-514.35 1148.85,-1148.84" /><path
         id="path16"
         style="fill:#ffffff;fill-opacity:1;fill-rule:nonzero;stroke:none"
         d="m 8928.05,1022.9 -262.16,262.21 -104.18,104.17 -640.69,640.69 -974.68,974.69 C 6750.44,2597.24 6463.9,2241.5 6112.93,1963.44 5609.02,1564.23 4972.31,1325.4 4280.99,1325.4 2651.3,1325.4 1325.39,2651.31 1325.39,4281 v 2504.71 c 0,1629.69 1325.91,2955.61 2955.6,2955.61 1629.69,0 2955.34,-1325.92 2955.34,-2955.61 V 4589.02 4281 c 0,-265.87 -35.26,-523.79 -101.79,-768.99 l 1030.35,-1030.35 396.82,-396.82 v 1694.9 179.46 321.8 243.17 2261.54 c 0,2360.51 -1920.21,4280.99 -4280.72,4280.99 C 1920.48,11066.7 0,9146.22 0,6785.71 V 4281 C 0,1920.49 1920.48,0 4280.99,0 c 1056.86,0 2025.45,384.898 2772.97,1022.4 0.2,0.2 0.39,0.4 0.6,0.5 h 1873.49" /><path
         id="path18"
         style="fill:#ffffff;fill-opacity:1;fill-rule:nonzero;stroke:none"
         d="M 1855.54,6785.71 V 4281 c 0,-1337.31 1088.14,-2425.45 2425.45,-2425.45 548.44,0 1055.27,183.17 1461.9,491.45 340.09,257.66 610.47,603.05 777.2,1002.26 119.82,286.81 186.09,601.72 186.09,931.74 v 2504.71 c 0,42.41 -1.06,84.56 -3.19,126.44 H 5373.64 c 4.77,-41.61 7.16,-83.76 7.16,-126.44 V 4281 c 0,-606.49 -493.31,-1100.07 -1099.81,-1100.07 -606.5,0 -1100.07,493.58 -1100.07,1100.07 v 2504.71 c 0,42.68 2.39,84.83 7.16,126.44 H 1858.72 c -2.12,-41.88 -3.18,-84.03 -3.18,-126.44" /></g></g></svg>